name Run_400 02_newCOP3_v24.mot
datacolumns 19
datarows 94
range 2.765 2.858
DataType=double
version=3
OpenSimVersion=4.3-2021-08-27-4bc7ad9
endheader
time	R_ground_force_vx	R_ground_force_vy	R_ground_force_vz	R_ground_force_px	R_ground_force_py	R_ground_force_pz	L_ground_force_vx	L_ground_force_vy	L_ground_force_vz	L_ground_force_px	L_ground_force_py	L_ground_force_pz	R_ground_torque_x	R_ground_torque_y	R_ground_torque_z	L_ground_torque_x	L_ground_torque_y	L_ground_torque_z
2.765	0	0	0	0	0	0	-167.795273	1009.078491	28.437628	0.8458059999999999	0	-0.356457	0	0	0	0	-1.468907	0
2.766	0	0	0	0	0	0	-172.645401	1022.224365	28.502226	0.844119	0	-0.35659	0	0	0	0	-1.49286	0
2.767	0	0	0	0	0	0	-177.021896	1035.608276	28.644102	0.842351	0	-0.356718	0	0	0	0	-1.515772	0
2.768	0	0	0	0	0	0	-180.911865	1049.26709	28.876541	0.840502	0	-0.35684	0	0	0	0	-1.537411	0
2.769	0	0	0	0	0	0	-184.308289	1063.228638	29.211765	0.838575	0	-0.356957	0	0	0	0	-1.557562	0
2.77	0	0	0	0	0	0	-187.209824	1077.511353	29.660675	0.836572	0	-0.357066	0	0	0	0	-1.576026	0
2.771	0	0	0	0	0	0	-189.620544	1092.124268	30.232561	0.834495	0	-0.357168	0	0	0	0	-1.592619	0
2.772	0	0	0	0	0	0	-191.549728	1107.067383	30.934839	0.8323469999999999	0	-0.357263	0	0	0	0	-1.607175	0
2.773	0	0	0	0	0	0	-193.011398	1122.331665	31.77281	0.830132	0	-0.357351	0	0	0	0	-1.619544	0
2.774	0	0	0	0	0	0	-194.023834	1137.89978	32.749439	0.827854	0	-0.35743	0	0	0	0	-1.62959	0
2.775	0	0	0	0	0	0	-194.609085	1153.746582	33.865189	0.825516	0	-0.357502	0	0	0	0	-1.637197	0
2.776	0	0	0	0	0	0	-194.792389	1169.840088	35.117897	0.823123	0	-0.357566	0	0	0	0	-1.64226	0
2.777	0	0	0	0	0	0	-194.601379	1186.141968	36.502712	0.820679	0	-0.357623	0	0	0	0	-1.644691	0
2.778	0	0	0	0	0	0	-194.065536	1202.608765	38.0121	0.818188	0	-0.357672	0	0	0	0	-1.644414	0
2.779	0	0	0	0	0	0	-193.215393	1219.192627	39.635914	0.815655	0	-0.357715	0	0	0	0	-1.641369	0
2.78	0	0	0	0	0	0	-192.081802	1235.842529	41.361523	0.813084	0	-0.357751	0	0	0	0	-1.635507	0
2.781	0	0	0	0	0	0	-190.695282	1252.505005	43.174026	0.81048	0	-0.35778	0	0	0	0	-1.626792	0
2.782	0	0	0	0	0	0	-189.085388	1269.125366	45.056488	0.807846	0	-0.357804	0	0	0	0	-1.6152	0
2.783	0	0	0	0	0	0	-187.280121	1285.648071	46.990284	0.805186	0	-0.357823	0	0	0	0	-1.600721	0
2.784	0	0	0	0	0	0	-185.30545	1302.018677	48.955425	0.802504	0	-0.357837	0	0	0	0	-1.583352	0
2.785	0	0	0	0	0	0	-183.184982	1318.183716	50.930958	0.799805	0	-0.357848	0	0	0	0	-1.563108	0
2.786	0	0	0	0	0	0	-180.939621	1334.091797	52.89539	0.79709	0	-0.357854	0	0	0	0	-1.540012	0
2.787	0	0	0	0	0	0	-178.58754	1349.694458	54.827095	0.794363	0	-0.357858	0	0	0	0	-1.514101	0
2.788	0	0	0	0	0	0	-176.144043	1364.946289	56.704769	0.7916260000000001	0	-0.357859	0	0	0	0	-1.485422	0
2.789	0	0	0	0	0	0	-173.621674	1379.80603	58.507832	0.788882	0	-0.357858	0	0	0	0	-1.454037	0
2.79	0	0	0	0	0	0	-171.030365	1394.235962	60.216858	0.7861320000000001	0	-0.357856	0	0	0	0	-1.42002	0
2.791	0	0	0	0	0	0	-168.377625	1408.203247	61.813969	0.783379	0	-0.357854	0	0	0	0	-1.38346	0
2.792	0	0	0	0	0	0	-165.668854	1421.679077	63.28318	0.780624	0	-0.35785	0	0	0	0	-1.344458	0
2.793	0	0	0	0	0	0	-162.907608	1434.639038	64.610733	0.777867	0	-0.357847	0	0	0	0	-1.303128	0
2.794	0	0	0	0	0	0	-160.095886	1447.062988	65.785393	0.77511	0	-0.357845	0	0	0	0	-1.259599	0
2.795	0	0	0	0	0	0	-157.234451	1458.935059	66.79866800000001	0.772353	0	-0.357842	0	0	0	0	-1.214014	0
2.796	0	0	0	0	0	0	-154.323151	1470.243164	67.644974	0.769595	0	-0.357841	0	0	0	0	-1.166529	0
2.797	0	0	0	0	0	0	-151.361023	1480.978882	68.321793	0.766838	0	-0.357842	0	0	0	0	-1.117313	0
2.798	0	0	0	0	0	0	-148.346634	1491.136963	68.82971999999999	0.76408	0	-0.357843	0	0	0	0	-1.066548	0
2.799	0	0	0	0	0	0	-145.278168	1500.715576	69.17243999999999	0.7613220000000001	0	-0.357847	0	0	0	0	-1.014425	0
2.8	0	0	0	0	0	0	-142.153503	1509.71521	69.35665899999999	0.758562	0	-0.357852	0	0	0	0	-0.961149	0
2.801	0	0	0	0	0	0	-138.970367	1518.139038	69.39196	0.755799	0	-0.357859	0	0	0	0	-0.90693	0
2.802	0	0	0	0	0	0	-135.726318	1525.992432	69.29059599999999	0.753033	0	-0.357867	0	0	0	0	-0.851986	0
2.803	0	0	0	0	0	0	-132.418732	1533.282715	69.06723	0.750263	0	-0.357877	0	0	0	0	-0.796542	0
2.804	0	0	0	0	0	0	-129.044922	1540.018311	68.738533	0.747487	0	-0.357889	0	0	0	0	-0.740823	0
2.805	0	0	0	0	0	0	-125.602036	1546.209595	68.32287599999999	0.744704	0	-0.357903	0	0	0	0	-0.685056	0
2.806	0	0	0	0	0	0	-122.087112	1551.867554	67.83981300000001	0.741912	0	-0.357918	0	0	0	0	-0.6294650000000001	0
2.807	0	0	0	0	0	0	-118.497108	1557.003906	67.30965399999999	0.73911	0	-0.357934	0	0	0	0	-0.574268	0
2.808	0	0	0	0	0	0	-114.828972	1561.631226	66.75293000000001	0.736297	0	-0.357951	0	0	0	0	-0.519678	0
2.809	0	0	0	0	0	0	-111.07962	1565.761719	66.189888	0.73347	0	-0.35797	0	0	0	0	-0.465895	0
2.81	0	0	0	0	0	0	-107.246109	1569.408203	65.639977	0.730629	0	-0.357989	0	0	0	0	-0.413106	0
2.811	0	0	0	0	0	0	-103.325623	1572.582642	65.121323	0.7277709999999999	0	-0.358008	0	0	0	0	-0.361481	0
2.812	0	0	0	0	0	0	-99.31559799999999	1575.296997	64.650284	0.724896	0	-0.358027	0	0	0	0	-0.311172	0
2.813	0	0	0	0	0	0	-95.213776	1577.562256	64.241013	0.722001	0	-0.358046	0	0	0	0	-0.26231	0
2.814	0	0	0	0	0	0	-91.018242	1579.388916	63.90509	0.719086	0	-0.358065	0	0	0	0	-0.215	0
2.815	0	0	0	0	0	0	-86.727448	1580.786499	63.651226	0.716149	0	-0.358084	0	0	0	0	-0.169324	0
2.816	0	0	0	0	0	0	-82.34023999999999	1581.763672	63.485065	0.713188	0	-0.358101	0	0	0	0	-0.125335	0
2.817	0	0	0	0	0	0	-77.85582700000001	1582.328369	63.409069	0.710202	0	-0.358117	0	0	0	0	-0.08305999999999999	0
2.818	0	0	0	0	0	0	-73.27372	1582.487427	63.422466	0.707191	0	-0.358131	0	0	0	0	-0.042496	0
2.819	0	0	0	0	0	0	-68.593712	1582.246704	63.521362	0.704153	0	-0.358143	0	0	0	0	-0.00361	0
2.82	0	0	0	0	0	0	-63.815823	1581.61145	63.698887	0.701087	0	-0.358154	0	0	0	-0	0.033657	-0
2.821	0	0	0	0	0	0	-58.940224	1580.58606	63.945454	0.697993	0	-0.358161	0	0	0	-0	0.069394	-0
2.822	0	0	0	0	0	0	-53.967224	1579.174316	64.249092	0.694869	0	-0.358167	0	0	0	-0	0.103713	-0
2.823	0	0	0	0	0	0	-48.897263	1577.378906	64.59584	0.691716	0	-0.358169	0	0	0	-0	0.136754	-0
2.824	0	0	0	0	0	0	-43.730919	1575.202271	64.970207	0.688534	0	-0.358167	0	0	0	-0	0.168674	-0
2.825	0	0	0	0	0	0	-38.468964	1572.645996	65.355614	0.685321	0	-0.358163	0	0	0	-0	0.199652	-0
2.826	0	0	0	0	0	0	-33.112461	1569.711182	65.73490099999999	0.682078	0	-0.358154	0	0	0	-0	0.229879	-0
2.827	0	0	0	0	0	0	-27.662876	1566.398438	66.09077499999999	0.678805	0	-0.358141	0	0	0	-0	0.25956	-0
2.828	0	0	0	0	0	0	-22.122219	1562.707642	66.40630299999999	0.675503	0	-0.358124	0	0	0	-0	0.288903	-0
2.829	0	0	0	0	0	0	-16.493206	1558.638306	66.665291	0.672171	0	-0.358102	0	0	0	-0	0.318121	-0
2.83	0	0	0	0	0	0	-10.779412	1554.189697	66.852638	0.668811	0	-0.358075	0	0	0	-0	0.347423	-0
2.831	0	0	0	0	0	0	-4.985427	1549.360352	66.954666	0.665423	0	-0.358043	0	0	0	-0	0.37701	-0
2.832	0	0	0	0	0	0	0.883031	1544.148804	66.95932000000001	0.662007	0	-0.358005	0	0	0	-0	0.40707	-0
2.833	0	0	0	0	0	0	6.819027	1538.553101	66.856354	0.658566	0	-0.357962	0	0	0	-0	0.437776	-0
2.834	0	0	0	0	0	0	12.814374	1532.571411	66.63739	0.655101	0	-0.357913	0	0	0	-0	0.469275	-0
2.835	0	0	0	0	0	0	18.859653	1526.201782	66.29600499999999	0.651612	0	-0.357857	0	0	0	-0	0.501691	-0
2.836	0	0	0	0	0	0	24.944294	1519.442017	65.82765999999999	0.648101	0	-0.357795	0	0	0	-0	0.535115	-0
2.837	0	0	0	0	0	0	31.056698	1512.290405	65.22968299999999	0.64457	0	-0.357726	0	0	0	-0	0.569604	-0
2.838	0	0	0	0	0	0	37.184433	1504.745361	64.50112900000001	0.641021	0	-0.357649	0	0	0	-0	0.605177	-0
2.839	0	0	0	0	0	0	43.314449	1496.805664	63.642681	0.637455	0	-0.357566	0	0	0	-0	0.641814	-0
2.84	0	0	0	0	0	0	49.433342	1488.470825	62.656525	0.633874	0	-0.357475	0	0	0	-0	0.6794519999999999	-0
2.841	0	0	0	0	0	0	55.527618	1479.740601	61.546192	0.63028	0	-0.357376	0	0	0	-0	0.717986	-0
2.842	0	0	0	0	0	0	61.583961	1470.615967	60.316437	0.626676	0	-0.357268	0	0	0	-0	0.757266	-0
2.843	0	0	0	0	0	0	67.5895	1461.098267	58.973122	0.623063	0	-0.357153	0	0	0	-0	0.7971	-0
2.844	0	0	0	0	0	0	73.532021	1451.189819	57.523075	0.619444	0	-0.357029	0	0	0	-0	0.837255	-0
2.845	0	0	0	0	0	0	79.40020800000001	1440.894043	55.974026	0.615821	0	-0.356896	0	0	0	-0	0.877457	-0
2.846	0	0	0	0	0	0	85.183746	1430.214844	54.334488	0.612196	0	-0.356755	0	0	0	-0	0.917397	-0
2.847	0	0	0	0	0	0	90.873459	1419.157471	52.613701	0.608571	0	-0.356604	0	0	0	-0	0.9567329999999999	-0
2.848	0	0	0	0	0	0	96.461349	1407.727661	50.821533	0.604949	0	-0.356444	0	0	0	-0	0.995095	-0
2.849	0	0	0	0	0	0	101.940613	1395.931885	48.968441	0.6013309999999999	0	-0.356275	0	0	0	-0	1.032091	-0
2.85	0	0	0	0	0	0	107.30558	1383.777466	47.065384	0.5977209999999999	0	-0.356096	0	0	0	-0	1.067311	-0
2.851	0	0	0	0	0	0	112.551628	1371.272217	45.123753	0.59412	0	-0.355907	0	0	0	-0	1.100339	-0
2.852	0	0	0	0	0	0	117.675072	1358.424072	43.155281	0.59053	0	-0.355709	0	0	0	-0	1.13075	-0
2.853	0	0	0	0	0	0	122.673012	1345.241821	41.171959	0.5869529999999999	0	-0.355501	0	0	0	-0	1.15813	-0
2.854	0	0	0	0	0	0	127.543159	1331.734131	39.185928	0.583391	0	-0.355283	0	0	0	-0	1.182074	-0
2.855	0	0	0	0	0	0	132.283646	1317.910034	37.209343	0.579846	0	-0.355055	0	0	0	-0	1.202196	-0
2.856	0	0	0	0	0	0	136.892853	1303.778564	35.254253	0.576319	0	-0.354818	0	0	0	-0	1.218141	-0
2.857	0	0	0	0	0	0	141.369247	1289.348877	33.332451	0.572813	0	-0.35457	0	0	0	-0	1.229587	-0
2.858	0	0	0	0	0	0	145.711182	1274.630127	31.455292	0.569329	0	-0.354314	0	0	0	-0	1.236257	-0
